<svg xmlns="http://www.w3.org/2000/svg" width="720" height="1018" viewBox="0 0 720 1018"><rect width="720" height="1018" fill="#fff"/><text x="360" y="70" text-anchor="middle" font-family="Microsoft YaHei" font-size="25" font-weight="700" fill="#c61f2c">北京市人民政府</text><line x1="70" y1="94" x2="650" y2="94" stroke="#c61f2c" stroke-width="4"/><text x="360" y="145" text-anchor="middle" font-family="Microsoft YaHei" font-size="27" font-weight="700" fill="#172b3a">北京市“十四五”时期</text><text x="360" y="184" text-anchor="middle" font-family="Microsoft YaHei" font-size="27" font-weight="700" fill="#172b3a">城市管理发展规划</text><text x="360" y="222" text-anchor="middle" font-family="Microsoft YaHei" font-size="15" fill="#687983">京政发〔2022〕10号</text><g fill="#7c8a93"><rect x="78" y="264" width="564" height="10"/><rect x="78" y="292" width="548" height="8"/><rect x="78" y="318" width="520" height="8"/><rect x="78" y="344" width="564" height="8"/><rect x="78" y="370" width="537" height="8"/><rect x="78" y="422" width="564" height="8"/><rect x="78" y="448" width="540" height="8"/><rect x="78" y="474" width="564" height="8"/><rect x="78" y="500" width="518" height="8"/><rect x="78" y="552" width="564" height="8"/><rect x="78" y="578" width="550" height="8"/><rect x="78" y="604" width="527" height="8"/><rect x="78" y="630" width="564" height="8"/><rect x="78" y="682" width="564" height="8"/><rect x="78" y="708" width="538" height="8"/><rect x="78" y="734" width="564" height="8"/></g><rect x="70" y="795" width="580" height="102" rx="6" fill="#e9ffd0"/><text x="360" y="837" text-anchor="middle" font-family="Microsoft YaHei" font-size="22" font-weight="700" fill="#356600">推进精细化、智能化城市管理</text><text x="360" y="873" text-anchor="middle" font-family="Microsoft YaHei" font-size="18" fill="#356600">建立用数据决策的管理机制</text><text x="360" y="962" text-anchor="middle" font-family="Consolas" font-size="14" fill="#788894">BEIJING MUNICIPAL GOVERNMENT · 2022</text></svg>
